<?xml version="1.0" encoding="UTF-8"?>
<svg id="Layer_2" data-name="Layer 2" xmlns="http://www.w3.org/2000/svg" viewBox="0 0 183.17 141.67">
  <defs>
    <style>
      .cls-1 {
        stroke-width: 0px;
      }
    </style>
  </defs>
  <g id="Layer_1-2" data-name="Layer 1">
    <path class="cls-1" d="M109.08,0c1.31,0,2.62,0,3.93,0,.2.05.4.12.61.14,6.21.65,11.84,2.86,16.95,6.4,4.82,3.34,8.39,7.83,11.21,12.91,12.15,21.85,24.21,43.75,36.4,65.58,4.35,7.78,5.89,15.96,4.47,24.73-1.76,10.81-7.18,19.26-16.31,25.31-4.63,3.07-9.71,4.88-15.26,5.35-3.85.33-7.64-.09-11.4-.85-6.29-1.27-12.56-2.64-18.88-3.78-7.55-1.37-15.18-2.16-22.87-2.27-1.96-.03-3.93-.28-5.88-.17-5.63.33-11.26.8-16.88,1.19-5.81.41-11.55,1.27-17.23,2.51-5.67,1.24-11.32,2.6-17,3.78-4.47.92-9,1.15-13.55.42-5.29-.86-9.97-3.07-14.26-6.22-6.82-5.01-11.05-11.64-12.54-19.98C.35,113.65.2,112.24,0,110.85c0-1.9,0-3.8,0-5.71.1-.77.2-1.54.31-2.32,1.12-7.89,4.56-14.69,9.95-20.47,2.53-2.71,5.32-5.19,8.03-7.74,6.94-6.51,13.88-13,20.84-19.48,14.26-13.28,28.53-26.54,42.82-39.8,2.79-2.59,5.56-5.2,8.51-7.59,4.41-3.57,9.4-6.05,15-7.16C106.66.35,107.88.19,109.08,0ZM157.96,103.87c-.03-2.24-.48-4.23-1.51-6.09-7.26-13.16-14.49-26.34-21.78-39.49-5.1-9.2-10.28-18.35-15.42-27.52-1.24-2.21-2.89-4-5.23-5.07-2.26-1.04-4.45-.94-6.48.51-1.24.88-2.44,1.83-3.55,2.86-6.92,6.4-13.81,12.83-20.71,19.25-17.56,16.34-35.12,32.69-52.69,49.01-2.87,2.66-4.82,5.77-5.31,9.73-.47,3.73,1.02,7.06,4.02,8.7,2.12,1.16,4.37,1.26,6.71.74,6.55-1.45,13.11-2.9,19.67-4.3,7.39-1.58,14.86-2.61,22.4-2.93,5.66-.24,11.32-.28,16.99-.46,10.06-.33,20.01.57,29.88,2.47,6.84,1.32,13.66,2.72,20.5,4.08,3.52.7,6.65-.02,9.12-2.76,2.26-2.51,3.31-5.5,3.39-8.72Z"/>
  </g>
</svg>